<?xml version="1.0" standalone="no"?>
<!DOCTYPE svg PUBLIC "-//W3C//DTD SVG 20010904//EN"
 "http://www.w3.org/TR/2001/REC-SVG-20010904/DTD/svg10.dtd">
<svg version="1.0" xmlns="http://www.w3.org/2000/svg"
 width="512.000000pt" height="512.000000pt" viewBox="0 0 512.000000 512.000000"
 preserveAspectRatio="xMidYMid meet">

<g transform="translate(0.000000,512.000000) scale(0.100000,-0.100000)"
fill="#000000" stroke="none">
<path d="M2635 5104 c-58 -21 -106 -64 -140 -125 l-30 -54 0 -262 0 -262 28
-28 c26 -28 27 -33 27 -132 0 -128 -12 -156 -86 -205 -29 -20 -55 -36 -58 -36
-2 0 -5 26 -8 58 -9 126 -99 252 -226 314 -62 31 -74 33 -167 33 -88 0 -107
-3 -158 -27 -128 -60 -203 -153 -233 -286 -14 -64 -15 -87 -5 -151 6 -42 14
-85 17 -97 5 -20 2 -21 -73 -20 -94 1 -150 -21 -213 -84 -57 -57 -82 -116 -82
-199 -1 -120 29 -166 198 -302 l124 -100 -56 -67 c-72 -87 -119 -185 -140
-294 l-17 -88 -177 0 c-149 0 -179 2 -184 15 -3 8 -1 15 4 15 23 0 192 125
251 187 84 86 119 154 119 226 0 70 -28 114 -95 147 -92 46 -242 30 -425 -46
-47 -19 -91 -36 -99 -37 -13 -2 -101 144 -101 168 0 6 39 34 87 64 105 66 220
179 256 252 51 101 31 200 -51 251 -29 18 -55 23 -127 26 -111 5 -217 -19
-343 -78 l-82 -39 -49 98 c-67 133 -85 197 -84 306 1 232 146 430 371 505 119
39 291 26 407 -32 121 -61 188 -139 295 -343 35 -66 72 -130 83 -142 42 -47
127 -14 127 49 0 15 -39 100 -87 190 -78 145 -97 173 -173 249 -73 74 -99 93
-180 132 -52 25 -120 51 -150 58 -79 19 -251 17 -329 -4 -242 -66 -431 -254
-497 -497 -28 -104 -24 -273 9 -375 17 -51 150 -312 362 -710 l335 -630 -178
-5 c-172 -5 -179 -6 -225 -33 -26 -16 -60 -47 -75 -69 -26 -41 -27 -45 -30
-217 -2 -109 1 -190 8 -213 24 -83 102 -137 207 -146 37 -3 63 -9 63 -16 0 -6
9 -95 21 -197 l22 -186 -262 -436 c-144 -240 -268 -452 -276 -472 -56 -133 50
-285 199 -285 112 0 146 31 287 269 62 102 117 192 124 200 11 11 14 -1 20
-65 6 -62 12 -82 31 -101 51 -50 125 -13 123 63 0 21 -8 106 -18 187 l-18 148
266 442 266 442 1196 3 1196 2 266 -445 267 -446 -49 -419 c-32 -268 -55 -429
-65 -448 -21 -41 -70 -80 -116 -92 -26 -7 -519 -9 -1522 -8 l-1484 3 -42 28
c-58 38 -79 84 -93 213 -11 89 -17 113 -36 132 -28 28 -72 28 -102 0 -23 -20
-23 -26 -17 -111 13 -169 36 -234 108 -313 22 -24 66 -56 97 -71 l56 -28 1535
0 1535 0 56 26 c72 34 134 96 166 165 21 46 31 106 63 375 20 176 39 322 42
324 2 2 55 -82 118 -188 63 -105 128 -206 143 -224 62 -71 198 -84 279 -27 58
41 88 101 88 179 l0 63 -274 458 -275 459 19 165 c29 247 24 230 69 230 20 0
60 7 88 15 61 18 126 83 142 141 14 50 14 318 0 367 -13 47 -67 109 -117 133
-30 15 -69 19 -209 22 l-173 4 0 153 0 152 -135 169 -135 169 0 145 c-1 195
-18 241 -105 281 -33 16 -66 19 -201 19 l-160 0 -35 46 c-35 48 -138 136 -239
204 -87 59 -90 65 -90 203 0 113 1 121 26 150 l25 30 -3 261 c-3 245 -4 263
-25 301 -25 47 -74 95 -123 121 -30 17 -62 19 -240 21 -160 2 -214 -1 -245
-13z m-548 -872 c80 -41 133 -128 133 -218 0 -22 -32 -193 -72 -381 l-72 -343
-103 0 c-57 0 -103 3 -103 8 0 4 -32 155 -70 336 -39 181 -70 353 -70 383 0
97 50 174 145 220 61 30 148 27 212 -5z m-1240 -438 c9 -25 -22 -75 -85 -137
-57 -55 -186 -147 -206 -147 -6 0 -34 45 -63 99 l-51 99 71 33 c101 46 181 67
260 68 54 1 69 -2 74 -15z m753 -159 c40 -39 64 -100 96 -253 23 -114 25 -135
13 -143 -8 -5 -17 -9 -20 -9 -17 0 -281 225 -294 250 -31 60 -10 134 48 171
46 29 118 22 157 -16z m906 16 c32 -20 64 -74 64 -110 0 -53 -29 -88 -156
-191 -71 -57 -134 -107 -140 -112 -16 -12 -44 1 -44 21 0 9 13 75 29 147 28
127 47 184 73 214 43 52 118 65 174 31z m1382 -143 l3 -118 -381 0 -380 0 0
113 c0 63 3 117 7 120 4 4 173 6 377 5 l371 -3 3 -117z m117 -358 c39 -50 72
-95 73 -100 2 -6 -66 -10 -177 -10 -168 0 -182 -1 -201 -20 -30 -30 -27 -83 6
-109 25 -20 39 -21 245 -21 l219 0 0 -100 0 -100 -655 0 -655 0 0 128 0 129
116 146 115 147 422 0 422 0 70 -90z m-2809 -15 c16 -42 -103 -171 -226 -246
-50 -30 -67 -36 -76 -26 -6 6 -32 51 -57 100 l-46 87 47 24 c26 13 76 33 112
44 36 12 72 23 80 26 8 2 48 5 88 5 56 1 74 -2 78 -14z m883 -6 c186 -43 338
-205 366 -392 l7 -47 -476 0 -476 0 0 29 c0 16 9 57 19 90 60 192 245 329 446
330 39 0 90 -4 114 -10z m2575 -615 c23 -23 23 -305 0 -328 -13 -14 -50 -16
-249 -16 l-234 0 -52 88 c-94 157 -120 192 -163 217 -149 87 -328 -13 -328
-185 0 -33 7 -70 16 -89 l17 -31 -1096 0 c-602 0 -1095 2 -1095 4 0 2 7 21 16
42 51 121 -41 271 -177 290 -110 15 -170 -30 -276 -207 l-78 -129 -237 0
c-202 0 -239 2 -252 16 -24 23 -23 299 1 326 15 17 94 18 2094 18 1875 0 2079
-2 2093 -16z m-3804 -509 c0 -3 -21 -42 -47 -87 l-47 -81 -7 34 c-4 19 -9 58
-12 87 l-6 52 59 0 c33 0 60 -2 60 -5z m3536 -56 c-3 -34 -6 -70 -6 -80 0 -11
-4 -19 -9 -19 -7 0 -57 77 -98 153 -2 4 24 7 58 7 l62 0 -7 -61z"/>
<path d="M1525 1798 c-49 -18 -83 -46 -111 -93 -25 -44 -25 -45 -22 -234 3
-211 4 -212 82 -275 30 -25 48 -31 99 -34 78 -4 138 24 182 87 l30 43 3 170
c4 197 -4 234 -68 292 -57 51 -129 67 -195 44z m93 -160 c8 -8 12 -58 12 -158
0 -150 -5 -170 -41 -170 -42 0 -49 24 -49 174 0 149 5 166 45 166 12 0 26 -5
33 -12z"/>
<path d="M2496 1795 c-51 -18 -102 -69 -122 -121 -13 -33 -15 -74 -12 -212 l3
-170 30 -44 c44 -62 103 -90 182 -86 51 3 69 9 99 34 78 63 79 64 82 274 3
174 2 192 -17 229 -23 44 -69 82 -120 100 -44 14 -77 13 -125 -4z m102 -157
c8 -8 12 -57 12 -154 0 -116 -3 -145 -16 -158 -18 -19 -45 -21 -62 -4 -17 17
-17 314 1 321 22 10 53 7 65 -5z"/>
<path d="M3475 1798 c-48 -17 -94 -56 -115 -98 -18 -35 -20 -59 -20 -214 0
-99 5 -187 11 -203 14 -38 67 -92 106 -109 84 -36 193 -3 248 75 l30 43 3 170
c4 197 -4 234 -68 292 -57 51 -128 67 -195 44z m93 -160 c8 -8 12 -58 12 -158
0 -150 -5 -170 -41 -170 -42 0 -49 24 -49 174 0 149 5 166 45 166 12 0 26 -5
33 -12z"/>
<path d="M2010 987 c-19 -6 -54 -30 -76 -53 -56 -56 -67 -107 -63 -295 4 -142
5 -147 34 -194 79 -128 261 -128 340 0 29 47 30 52 34 194 4 188 -7 239 -62
295 -61 60 -129 78 -207 53z m98 -159 c8 -8 12 -58 12 -160 0 -140 -1 -148
-21 -159 -16 -8 -28 -8 -45 0 -24 10 -24 13 -24 159 0 155 4 172 45 172 12 0
26 -5 33 -12z"/>
<path d="M2998 991 c-48 -16 -88 -45 -116 -85 -27 -39 -27 -42 -30 -220 -3
-172 -2 -183 20 -225 36 -71 86 -104 162 -109 95 -6 165 36 201 120 20 50 22
353 1 401 -15 37 -59 83 -98 103 -35 18 -105 26 -140 15z m92 -170 c5 -11 10
-77 10 -148 0 -100 -3 -133 -16 -151 -18 -26 -41 -28 -66 -5 -16 14 -18 33
-18 150 0 74 5 143 10 154 7 12 21 19 40 19 19 0 33 -7 40 -19z"/>
</g>
</svg>
